<?xml version="1.0" encoding="UTF-8"?>
<svg width="24px" height="24px" viewBox="0 0 24 24" version="1.1" xmlns="http://www.w3.org/2000/svg" xmlns:xlink="http://www.w3.org/1999/xlink">
    <!-- Generator: Sketch 42 (36781) - http://www.bohemiancoding.com/sketch -->
    <title>Icons/ux/time alt</title>
    <desc>Created with Sketch.</desc>
    <defs>
        <path d="M20.8586361,6.35068592 C20.7669834,6.29553766 18.5946351,5 16.3592513,5 C14.4573611,5 12.600014,5.93741737 12.0302344,6.25117181 C11.4604549,5.93738303 9.6009281,5 7.69903786,5 C5.4636893,4.99996566 3.26648541,6.29550332 3.17486787,6.35068592 C3.0762542,6.40992051 3,6.51489449 3,6.62790378 L3,18.6744673 C3,18.7924557 3.08251204,18.901001 3.18784058,18.9585873 C3.29313396,19.0161049 3.43084152,19.0134265 3.53370911,18.9518569 C3.55469748,18.9392888 5.65342832,17.6976976 7.69689332,17.6976976 C9.74035833,17.6976976 11.8369095,18.9392888 11.857933,18.9518569 C11.8599369,18.9530587 11.8631361,18.9538485 11.8651401,18.9549817 C11.8670385,18.9560806 11.8692885,18.9574885 11.8712924,18.958553 C11.8762846,18.9613001 11.8819097,18.9632574 11.8870425,18.9656954 C11.8935816,18.9688203 11.900191,18.9720825 11.9068355,18.9747953 C11.9140777,18.9777484 11.9215309,18.9800491 11.9289489,18.9824872 C11.935945,18.9847535 11.9428708,18.9871916 11.9499373,18.9890116 C11.9569685,18.9907972 11.9641053,18.991999 11.9711717,18.9933383 C11.978871,18.9947461 11.9864647,18.9963944 11.9942343,18.9973216 C12.0007734,18.9981114 12.0073476,18.9982831 12.0138867,18.9986608 C12.0207774,18.9990728 12.0276329,19 12.0345587,19 C12.0360704,19 12.0375821,18.9997596 12.0390939,18.9997253 C12.0435939,18.9996909 12.0480587,18.9991072 12.0525588,18.9989355 C12.0622971,18.9983861 12.0719651,18.9978366 12.0815979,18.9964631 C12.087012,18.9957076 12.0922855,18.9944714 12.0976292,18.9934413 C12.1062426,18.9918273 12.1147856,18.9902134 12.1232934,18.9879127 C12.1294106,18.9862644 12.1353872,18.9841011 12.1413989,18.9821094 C12.1489224,18.9796027 12.1564107,18.9771646 12.1637584,18.9741428 C12.1702272,18.9714644 12.1764499,18.9683395 12.182778,18.9652834 C12.1875944,18.9629483 12.1925515,18.9610597 12.1972624,18.9585186 C12.1991609,18.9574541 12.2008132,18.9561492 12.2026765,18.9550504 C12.2047508,18.9538485 12.2069656,18.9530244 12.2089695,18.9517882 C12.2299579,18.9392202 14.3243645,17.6976289 16.3678295,17.6976289 C18.4112945,17.6976289 20.5057011,18.9392202 20.5266895,18.9517882 C20.5800569,18.9837577 20.6406313,18.9999657 20.7011706,18.9999657 C20.7571396,18.9999657 20.7960577,18.9861271 20.8466829,18.9585186 C20.9519763,18.9009323 20.9999999,18.7923871 20.9999999,18.6743986 L20.9999999,6.62790378 C21.0000702,6.51489449 20.9572497,6.40992051 20.8586361,6.35068592 Z M11.6666823,18.1226757 C10.916691,17.7271947 9.28680578,17.0465635 7.66665883,17.0465635 C6.04651189,17.0465635 4.49998241,17.7271947 3.66663541,18.1226757 L3.66663541,6.81597789 C4.24998535,6.52914513 5.94821463,5.65113404 7.66665883,5.65113404 C9.38510304,5.65113404 11.1666881,6.52914513 11.6666823,6.81597789 L11.6666823,18.1226757 L11.6666823,18.1226757 Z M20.3333997,18.1226757 C19.5834084,17.7271947 17.9535232,17.0465635 16.3333762,17.0465635 C14.7132644,17.0465635 13.1666998,17.7271947 12.3333528,18.1226757 L12.3333528,6.81597789 C12.9167028,6.52914513 14.614932,5.65113404 16.3333762,5.65113404 C18.0518204,5.65113404 19.8334055,6.52914513 20.3333997,6.81597789 L20.3333997,18.1226757 Z M4.5355604,9.12157496 C4.45448855,9.15339782 4.36235515,9.11500186 4.32977469,9.03581519 C4.29719423,8.95662851 4.33650427,8.86663751 4.41757612,8.83481465 C4.42120032,8.83339205 4.42781077,8.83083884 4.43731284,8.82723043 C4.45280714,8.82134647 4.47100275,8.8145586 4.49180512,8.80694223 C4.5508308,8.78533117 4.61914162,8.76131444 4.69598248,8.73549574 C4.91492701,8.66192988 5.15885493,8.58843612 5.42175664,8.51985275 C6.17445244,8.32349642 6.92974336,8.20556977 7.64064311,8.20556977 C8.35154285,8.20556977 9.10683377,8.32349642 9.85952957,8.51985275 C10.1224313,8.58843612 10.3663592,8.66192988 10.5853037,8.73549574 C10.6621446,8.76131444 10.7304554,8.78533117 10.7894811,8.80694223 C10.8102835,8.8145586 10.8284791,8.82134647 10.8439734,8.82723043 C10.8534754,8.83083884 10.8600859,8.83339205 10.8637101,8.83481465 C10.9447819,8.86663751 10.984092,8.95662851 10.9515115,9.03581519 C10.9189311,9.11500186 10.8267977,9.15339782 10.7457258,9.12157496 C10.743199,9.1205831 10.7376977,9.11845831 10.7293179,9.11527607 C10.715009,9.10984228 10.6980121,9.10350157 10.678423,9.09632941 C10.6220444,9.07568754 10.5564403,9.05262242 10.4823788,9.02773761 C10.2701739,8.95643627 10.0332834,8.88506285 9.77788487,8.81843683 C9.0497228,8.62848064 8.32047231,8.51461978 7.64064311,8.51461978 C6.9608139,8.51461978 6.23156341,8.62848064 5.50340134,8.81843683 C5.24800279,8.88506285 5.01111235,8.95643627 4.79890741,9.02773761 C4.72484596,9.05262242 4.6592418,9.07568754 4.60286324,9.09632941 C4.58327413,9.10350157 4.5662772,9.10984228 4.55196833,9.11527607 C4.54358849,9.11845831 4.53808725,9.1205831 4.5355604,9.12157496 Z M13.3598136,9.12157496 C13.3623404,9.1205831 13.3678417,9.11845831 13.3762215,9.11527607 C13.3905304,9.10984228 13.4075273,9.10350157 13.4271164,9.09632941 C13.483495,9.07568754 13.5490991,9.05262242 13.6231606,9.02773761 C13.8353655,8.95643627 14.072256,8.88506285 14.3276545,8.81843683 C15.0558166,8.62848064 15.7850671,8.51461978 16.4648963,8.51461978 C16.962807,8.51461978 17.4923652,8.57637363 18.0359123,8.68688225 C18.1214524,8.70427341 18.2052303,8.65064026 18.2230355,8.56708925 C18.2408407,8.48353824 18.1859307,8.40170844 18.1003906,8.38431728 C17.5370036,8.26977499 16.986424,8.20556977 16.4648963,8.20556977 C15.7539965,8.20556977 14.9987056,8.32349642 14.2460098,8.51985275 C13.9831081,8.58843612 13.7391802,8.66192988 13.5202357,8.73549574 C13.4433948,8.76131444 13.375084,8.78533117 13.3160583,8.80694223 C13.2952559,8.8145586 13.2770603,8.82134647 13.261566,8.82723043 C13.252064,8.83083884 13.2454535,8.83339205 13.2418293,8.83481465 C13.1607575,8.86663751 13.1214474,8.95662851 13.1540279,9.03581519 C13.1866083,9.11500186 13.2787417,9.15339782 13.3598136,9.12157496 Z M4.5355604,10.6324861 C4.45448855,10.664309 4.36235515,10.625913 4.32977469,10.5467264 C4.29719423,10.4675397 4.33650427,10.3775487 4.41757612,10.3457258 C4.42120032,10.3443032 4.42781077,10.34175 4.43731284,10.3381416 C4.45280714,10.3322577 4.47100275,10.3254698 4.49180512,10.3178534 C4.5508308,10.2962424 4.61914162,10.2722256 4.69598248,10.2464069 C4.91492701,10.1728411 5.15885493,10.0993473 5.42175664,10.0307639 C6.17445244,9.83440761 6.92974336,9.71648095 7.64064311,9.71648095 C8.41409966,9.71648095 9.23555905,9.85531231 10.041542,10.0798564 C10.1255645,10.1032648 10.1742501,10.1887709 10.1502845,10.2708396 C10.1263188,10.3529083 10.0387771,10.4004618 9.95475465,10.3770535 C9.17467967,10.1597272 8.38064598,10.025531 7.64064311,10.025531 C6.9608139,10.025531 6.23156341,10.1393918 5.50340134,10.329348 C5.24800279,10.395974 5.01111235,10.4673475 4.79890741,10.5386488 C4.72484596,10.5635336 4.6592418,10.5865987 4.60286324,10.6072406 C4.58327413,10.6144128 4.5662772,10.6207535 4.55196833,10.6261873 C4.54358849,10.6293695 4.53808725,10.6314943 4.5355604,10.6324861 Z M13.3598136,10.6324861 C13.3623404,10.6314943 13.3678417,10.6293695 13.3762215,10.6261873 C13.3905304,10.6207535 13.4075273,10.6144128 13.4271164,10.6072406 C13.483495,10.5865987 13.5490991,10.5635336 13.6231606,10.5386488 C13.8353655,10.4673475 14.072256,10.395974 14.3276545,10.329348 C15.0558166,10.1393918 15.7850671,10.025531 16.4648963,10.025531 C17.0875993,10.025531 17.7545335,10.1214605 18.4283494,10.2855215 C18.5131285,10.3061636 18.5989877,10.2557683 18.6201212,10.1729605 C18.6412547,10.0901527 18.5896597,10.00629 18.5048805,9.98564798 C17.807909,9.81594908 17.1163735,9.71648095 16.4648963,9.71648095 C15.7539965,9.71648095 14.9987056,9.83440761 14.2460098,10.0307639 C13.9831081,10.0993473 13.7391802,10.1728411 13.5202357,10.2464069 C13.4433948,10.2722256 13.375084,10.2962424 13.3160583,10.3178534 C13.2952559,10.3254698 13.2770603,10.3322577 13.261566,10.3381416 C13.252064,10.34175 13.2454535,10.3443032 13.2418293,10.3457258 C13.1607575,10.3775487 13.1214474,10.4675397 13.1540279,10.5467264 C13.1866083,10.625913 13.2787417,10.664309 13.3598136,10.6324861 Z M4.5355604,12.1777362 C4.45448855,12.2095591 4.36235515,12.1711631 4.32977469,12.0919764 C4.29719423,12.0127898 4.33650427,11.9227988 4.41757612,11.8909759 C4.42120032,11.8895533 4.42781077,11.8870001 4.43731284,11.8833917 C4.45280714,11.8775077 4.47100275,11.8707199 4.49180512,11.8631035 C4.5508308,11.8414924 4.61914162,11.8174757 4.69598248,11.791657 C4.91492701,11.7180911 5.15885493,11.6445974 5.42175664,11.576014 C6.17445244,11.3796577 6.92974336,11.261731 7.64064311,11.261731 C8.07412744,11.261731 8.5290377,11.3062415 8.99655863,11.3876758 C9.08257512,11.4026584 9.13987029,11.482913 9.12453098,11.5669293 C9.10919167,11.6509456 9.02702655,11.7069085 8.94101006,11.6919259 C8.49079765,11.6135065 8.05413161,11.570781 7.64064311,11.570781 C6.9608139,11.570781 6.23156341,11.6846419 5.50340134,11.8745981 C5.24800279,11.9412241 5.01111235,12.0125975 4.79890741,12.0838989 C4.72484596,12.1087837 4.6592418,12.1318488 4.60286324,12.1524907 C4.58327413,12.1596628 4.5662772,12.1660035 4.55196833,12.1714373 C4.54358849,12.1746196 4.53808725,12.1767444 4.5355604,12.1777362 Z M13.3598136,12.1777362 C13.3623404,12.1767444 13.3678417,12.1746196 13.3762215,12.1714373 C13.3905304,12.1660035 13.4075273,12.1596628 13.4271164,12.1524907 C13.483495,12.1318488 13.5490991,12.1087837 13.6231606,12.0838989 C13.8353655,12.0125975 14.072256,11.9412241 14.3276545,11.8745981 C14.6546849,11.7892854 14.9880063,11.718166 15.321427,11.665973 C15.4076996,11.6524681 15.4664288,11.5732087 15.4526024,11.4889422 C15.438776,11.4046757 15.3576297,11.3473121 15.2713571,11.360817 C14.9267217,11.4147655 14.5829799,11.4881084 14.2460098,11.576014 C13.9831081,11.6445974 13.7391802,11.7180911 13.5202357,11.791657 C13.4433948,11.8174757 13.375084,11.8414924 13.3160583,11.8631035 C13.2952559,11.8707199 13.2770603,11.8775077 13.261566,11.8833917 C13.252064,11.8870001 13.2454535,11.8895533 13.2418293,11.8909759 C13.1607575,11.9227988 13.1214474,12.0127898 13.1540279,12.0919764 C13.1866083,12.1711631 13.2787417,12.2095591 13.3598136,12.1777362 Z M4.5355604,13.6886474 C4.45448855,13.7204703 4.36235515,13.6820743 4.32977469,13.6028876 C4.29719423,13.523701 4.33650427,13.4337099 4.41757612,13.4018871 C4.42120032,13.4004645 4.42781077,13.3979113 4.43731284,13.3943029 C4.45280714,13.3884189 4.47100275,13.381631 4.49180512,13.3740147 C4.5508308,13.3524036 4.61914162,13.3283869 4.69598248,13.3025682 C4.91492701,13.2290023 5.15885493,13.1555086 5.42175664,13.0869252 C5.73312324,13.0056987 6.05072285,12.9368096 6.36980646,12.8841567 C6.80784526,12.8118746 7.233846,12.7726422 7.64064311,12.7726422 C8.35688877,12.7726422 9.11787797,12.8922977 9.87536369,13.091068 C9.95974511,13.1132104 10.0097725,13.1979743 9.987103,13.2803936 C9.9644335,13.3628129 9.87765158,13.411677 9.79327016,13.3895347 C9.06043851,13.1972337 8.32561328,13.0816922 7.64064311,13.0816922 C7.25272082,13.0816922 6.84406428,13.1193273 6.42251388,13.1888886 C6.11366012,13.2398534 5.80562388,13.3066682 5.50340134,13.3855093 C5.24800279,13.4521353 5.01111235,13.5235087 4.79890741,13.59481 C4.72484596,13.6196949 4.6592418,13.64276 4.60286324,13.6634018 C4.58327413,13.670574 4.5662772,13.6769147 4.55196833,13.6823485 C4.54358849,13.6855307 4.53808725,13.6876555 4.5355604,13.6886474 Z M13.3598136,13.6886474 C13.3623404,13.6876555 13.3678417,13.6855307 13.3762215,13.6823485 C13.3905304,13.6769147 13.4075273,13.670574 13.4271164,13.6634018 C13.483495,13.64276 13.5490991,13.6196949 13.6231606,13.59481 C13.8353655,13.5235087 14.072256,13.4521353 14.3276545,13.3855093 C15.0558166,13.1955531 15.7850671,13.0816922 16.4648963,13.0816922 C16.5522698,13.0816922 16.6231,13.012509 16.6231,12.9271672 C16.6231,12.8418254 16.5522698,12.7726422 16.4648963,12.7726422 C15.7539965,12.7726422 14.9987056,12.8905689 14.2460098,13.0869252 C13.9831081,13.1555086 13.7391802,13.2290023 13.5202357,13.3025682 C13.4433948,13.3283869 13.375084,13.3524036 13.3160583,13.3740147 C13.2952559,13.381631 13.2770603,13.3884189 13.261566,13.3943029 C13.252064,13.3979113 13.2454535,13.4004645 13.2418293,13.4018871 C13.1607575,13.4337099 13.1214474,13.523701 13.1540279,13.6028876 C13.1866083,13.6820743 13.2787417,13.7204703 13.3598136,13.6886474 Z M4.5355604,15.1995586 C4.45448855,15.2313814 4.36235515,15.1929855 4.32977469,15.1137988 C4.29719423,15.0346121 4.33650427,14.9446211 4.41757612,14.9127983 C4.42120032,14.9113757 4.42781077,14.9088225 4.43731284,14.9052141 C4.45280714,14.8993301 4.47100275,14.8925422 4.49180512,14.8849258 C4.5508308,14.8633148 4.61914162,14.8392981 4.69598248,14.8134794 C4.91492701,14.7399135 5.15885493,14.6664197 5.42175664,14.5978364 C5.82193175,14.4934424 6.22994517,14.4099423 6.63649472,14.3550045 C6.72304387,14.343309 6.80291264,14.4023583 6.81488662,14.486895 C6.8268606,14.5714316 6.76640548,14.6494431 6.67985634,14.6611387 C6.28705985,14.714218 5.89163243,14.7951423 5.50340134,14.8964205 C5.24800279,14.9630465 5.01111235,15.0344199 4.79890741,15.1057212 C4.72484596,15.130606 4.6592418,15.1536712 4.60286324,15.174313 C4.58327413,15.1814852 4.5662772,15.1878259 4.55196833,15.1932597 C4.54358849,15.1964419 4.53808725,15.1985667 4.5355604,15.1995586 Z M13.3598136,15.1995586 C13.3623404,15.1985667 13.3678417,15.1964419 13.3762215,15.1932597 C13.3905304,15.1878259 13.4075273,15.1814852 13.4271164,15.174313 C13.483495,15.1536712 13.5490991,15.130606 13.6231606,15.1057212 C13.8353655,15.0344199 14.072256,14.9630465 14.3276545,14.8964205 C15.0558166,14.7064643 15.7850671,14.5926034 16.4648963,14.5926034 C17.1447255,14.5926034 17.873976,14.7064643 18.602138,14.8964205 C18.8575366,14.9630465 19.094427,15.0344199 19.306632,15.1057212 C19.3806934,15.130606 19.4462976,15.1536712 19.5026761,15.174313 C19.5222653,15.1814852 19.5392622,15.1878259 19.5535711,15.1932597 C19.5619509,15.1964419 19.5674521,15.1985667 19.569979,15.1995586 C19.6510508,15.2313814 19.7431842,15.1929855 19.7757647,15.1137988 C19.8083452,15.0346121 19.7690351,14.9446211 19.6879633,14.9127983 C19.6843391,14.9113757 19.6777286,14.9088225 19.6682266,14.9052141 C19.6527322,14.8993301 19.6345366,14.8925422 19.6137343,14.8849258 C19.5547086,14.8633148 19.4863978,14.8392981 19.4095569,14.8134794 C19.1906124,14.7399135 18.9466845,14.6664197 18.6837828,14.5978364 C17.931087,14.40148 17.175796,14.2835534 16.4648963,14.2835534 C15.7539965,14.2835534 14.9987056,14.40148 14.2460098,14.5978364 C13.9831081,14.6664197 13.7391802,14.7399135 13.5202357,14.8134794 C13.4433948,14.8392981 13.375084,14.8633148 13.3160583,14.8849258 C13.2952559,14.8925422 13.2770603,14.8993301 13.261566,14.9052141 C13.252064,14.9088225 13.2454535,14.9113757 13.2418293,14.9127983 C13.1607575,14.9446211 13.1214474,15.0346121 13.1540279,15.1137988 C13.1866083,15.1929855 13.2787417,15.2313814 13.3598136,15.1995586 Z" id="path-1"></path>
    </defs>
    <g id="Symbols" stroke="none" stroke-width="1" fill="none" fill-rule="evenodd">
        <g id="Icons/ux/time-alt">
            <rect id="Frame" x="0" y="0" width="24" height="24"></rect>
            <mask id="mask-2" fill="white">
                <use xlink:href="#path-1"></use>
            </mask>
            <use id="Combined-Shape" fill="#000000" fill-rule="nonzero" xlink:href="#path-1"></use>
            <g id="Color/Main-1" mask="url(#mask-2)" fill="#193161">
                <rect x="0" y="0" width="24" height="24"></rect>
            </g>
        </g>
    </g>
</svg>