<?xml version="1.0" encoding="UTF-8"?>
<svg width="24px" height="24px" viewBox="0 0 24 24" version="1.1" xmlns="http://www.w3.org/2000/svg" xmlns:xlink="http://www.w3.org/1999/xlink">
    <!-- Generator: Sketch 42 (36781) - http://www.bohemiancoding.com/sketch -->
    <title>Icons/ux/user</title>
    <desc>Created with Sketch.</desc>
    <defs>
        <path d="M17.80725,16.53375 C19.68675,17.00325 21,18.6855 21,20.62275 C21,20.8305 20.832,21 20.625,21 L3.375,21 C3.168,21 3,20.832 3,20.625 C3,18.6855 4.3125,17.004 6.19275,16.53375 L9.066,15.81525 L9.327,14.7705 C8.6025,14.022 8.103,13.01025 7.94775,11.979 C7.479,11.8875 7.107,11.5035 7.0455,11.01375 L6.858,9.51375 C6.81825,9.1935 6.91725,8.87175 7.131,8.6295 C7.2675,8.475 7.443,8.3625 7.635,8.301 C7.58175,7.845 7.5,7.08675 7.5,6.75 C7.5,5.3025 7.935,3.81825 11.13,3.7515 C12.249,3 13.45125,3 13.9725,3 C15.2955,3 16.251,3.43575 16.8135,4.2945 C17.5455,5.41275 17.19525,6.183 16.773,6.63225 L16.4925,6.91275 L16.4235,8.325 C16.59525,8.39025 16.7505,8.49675 16.8735,8.63775 C17.0835,8.8785 17.181,9.198 17.14125,9.5145 L16.95375,11.0145 C16.89675,11.47275 16.56675,11.83875 16.14075,11.958 C15.98475,13.03125 15.45825,14.076 14.6895,14.83725 L14.934,15.81525 L17.80725,16.53375 Z" id="path-1"></path>
    </defs>
    <g id="Symbols" stroke="none" stroke-width="1" fill="none" fill-rule="evenodd">
        <g id="Icons/ux/user">
            <rect id="Frame" x="0" y="0" width="24" height="24"></rect>
            <mask id="mask-2" fill="white">
                <use xlink:href="#path-1"></use>
            </mask>
            <use id="Shape" fill="#000000" fill-rule="nonzero" xlink:href="#path-1"></use>
            <g id="Color/Main-1" mask="url(#mask-2)" fill="#193161">
                <rect x="0" y="0" width="24" height="24"></rect>
            </g>
        </g>
    </g>
</svg>