<?xml version="1.0" encoding="UTF-8"?>
<svg width="24px" height="24px" viewBox="0 0 24 24" version="1.1" xmlns="http://www.w3.org/2000/svg" xmlns:xlink="http://www.w3.org/1999/xlink">
    <!-- Generator: Sketch 42 (36781) - http://www.bohemiancoding.com/sketch -->
    <title>Icons/ux/time alt 2</title>
    <desc>Created with Sketch.</desc>
    <defs>
        <path d="M20.7342162,13.8941034 L18.350466,6.45646571 C18.0146745,5.37218796 16.8412495,4.75933531 15.7379347,5.08933289 C15.4759436,5.16911253 15.324653,5.44108855 15.4058333,5.69855919 C15.4870137,5.95602983 15.7637649,6.10471005 16.025756,6.02493042 C16.6050885,5.85086576 17.2176311,6.17361065 17.3947519,6.74294712 L17.3947519,6.74657347 L19.0995392,12.0736772 C18.5571069,11.7726904 17.9334942,11.6022521 17.2692913,11.6022521 C15.3578631,11.6022521 13.7785363,13.0237801 13.5645154,14.8442063 L10.4280019,14.8442063 C10.1844609,13.0527909 8.61989415,11.6675264 6.73060603,11.6675264 C6.06271316,11.6675264 5.43541047,11.841591 4.89297814,12.1425778 L6.61990556,6.74657347 L6.61990556,6.74294712 C6.79702632,6.17361065 7.40956895,5.85086576 7.98890144,6.02493042 C8.25089257,6.10471005 8.53133377,5.95602983 8.60882411,5.69855919 C8.69000445,5.44108855 8.5387138,5.16548618 8.27672268,5.08933289 C7.17340794,4.75933531 6.00367291,5.37218796 5.66419145,6.45646571 L3.28782124,13.9013561 C3.28044121,13.9231142 3.27675119,13.9412459 3.27306117,13.963004 C3.09963043,14.3872866 3,14.851459 3,15.3337632 C3,17.3536385 4.6752672,19 6.73060603,19 C8.61989415,19 10.1844609,17.6147354 10.4280019,15.82332 L13.5829655,15.82332 C13.8560267,17.5820983 15.4058333,18.9347258 17.2692913,18.9347258 C19.3246302,18.9347258 20.9998974,17.2883642 20.9998974,15.2684889 C21.0035874,14.7825584 20.907647,14.318386 20.7342162,13.8941034 Z M6.73429605,18.0208863 C5.22507956,18.0208863 3.9999943,16.8169391 3.9999943,15.3337632 C3.9999943,13.8505873 5.22507956,12.64664 6.73429605,12.64664 C8.24351254,12.64664 9.4685978,13.8505873 9.4685978,15.3337632 C9.4685978,16.8169391 8.23982252,18.0208863 6.73429605,18.0208863 Z M17.2729813,17.9556121 C15.7637649,17.9556121 14.5386796,16.7516649 14.5386796,15.2684889 C14.5386796,13.785313 15.7674549,12.5813658 17.2729813,12.5813658 C18.7785078,12.5813658 20.0072831,13.785313 20.0072831,15.2684889 C20.0072831,16.7516649 18.7821978,17.9556121 17.2729813,17.9556121 Z" id="path-1"></path>
    </defs>
    <g id="Symbols" stroke="none" stroke-width="1" fill="none" fill-rule="evenodd">
        <g id="Icons/ux/time-alt-2">
            <rect id="Frame" x="0" y="0" width="24" height="24"></rect>
            <mask id="mask-2" fill="white">
                <use xlink:href="#path-1"></use>
            </mask>
            <use id="Shape" fill="#000000" fill-rule="nonzero" xlink:href="#path-1"></use>
            <g id="Color/Main-1" mask="url(#mask-2)" fill="#193161">
                <rect x="0" y="0" width="24" height="24"></rect>
            </g>
        </g>
    </g>
</svg>