<?xml version="1.0" encoding="UTF-8"?>
<svg width="47px" height="37px" viewBox="0 0 47 37" version="1.1" xmlns="http://www.w3.org/2000/svg" xmlns:xlink="http://www.w3.org/1999/xlink">
    <!-- Generator: Sketch 42 (36781) - http://www.bohemiancoding.com/sketch -->
    <title>Combined Shape</title>
    <desc>Created with Sketch.</desc>
    <defs></defs>
    <g id="Symbols" stroke="none" stroke-width="1" fill="none" fill-rule="evenodd">
        <g id="Cards/Blog-Card" transform="translate(0.000000, -110.000000)" fill="#ECECEC">
            <g id="Blog-Card">
                <path d="M21.6923077,114.900533 C18.1468805,116.053606 15.3245763,117.783188 13.2253102,120.089333 C11.1260441,122.395478 10.3096751,125.374204 10.7761787,129.0256 C11.8024865,129.890404 13.2486259,130.779218 15.1146402,131.692067 C16.9806545,132.604916 18.6133925,133.301553 20.0129032,133.782 C20.3861061,135.31943 20.3861061,136.808793 20.0129032,138.250133 C19.6397004,139.691474 19.0332548,140.964639 18.1935484,142.069667 C17.353842,143.174694 16.3741991,144.08753 15.2545906,144.8082 C14.134982,145.52887 13.1086895,145.937244 12.1756824,146.033333 C8.91015737,145.745065 6.06452826,144.495922 3.63870968,142.285867 C1.2128911,140.075811 0,136.90491 0,132.773067 C0,130.370832 0.396522089,127.968634 1.18957816,125.5664 C1.98263424,123.164166 3.17220051,120.930121 4.75831266,118.8642 C6.3444248,116.798279 8.35036008,114.972608 10.7761787,113.387133 C13.2019972,111.801659 16.094276,110.672626 19.4531017,110 L21.6923077,114.900533 Z M47,114.900533 C43.4545728,116.053606 40.6322686,117.783188 38.5330025,120.089333 C36.4337364,122.395478 35.6173674,125.374204 36.083871,129.0256 C37.1101788,129.890404 38.5563182,130.779218 40.4223325,131.692067 C42.2883468,132.604916 43.9210848,133.301553 45.3205955,133.782 C45.6937984,135.31943 45.6937984,136.808793 45.3205955,138.250133 C44.9473927,139.691474 44.3409471,140.964639 43.5012407,142.069667 C42.6615343,143.174694 41.6818915,144.08753 40.5622829,144.8082 C39.4426743,145.52887 38.4163818,145.937244 37.4833747,146.033333 C34.2178497,145.745065 31.3722206,144.495922 28.946402,142.285867 C26.5205834,140.075811 25.3076923,136.90491 25.3076923,132.773067 C25.3076923,130.370832 25.7042144,127.968634 26.4972705,125.5664 C27.2903265,123.164166 28.4798928,120.930121 30.066005,118.8642 C31.6521171,116.798279 33.6580524,114.972608 36.083871,113.387133 C38.5096895,111.801659 41.4019683,110.672626 44.760794,110 L47,114.900533 Z" id="Combined-Shape"></path>
            </g>
        </g>
    </g>
</svg>