<?xml version="1.0" encoding="UTF-8"?>
<svg width="78px" height="20px" viewBox="0 0 78 20" version="1.1" xmlns="http://www.w3.org/2000/svg" xmlns:xlink="http://www.w3.org/1999/xlink">
    <!-- Generator: Sketch 42 (36781) - http://www.bohemiancoding.com/sketch -->
    <title>Shape</title>
    <desc>Created with Sketch.</desc>
    <defs></defs>
    <g id="Symbols" stroke="none" stroke-width="1" fill="none" fill-rule="evenodd">
        <g id="Menu/Forbes" transform="translate(0.000000, -30.000000)" fill-rule="nonzero" fill="#193161">
            <g id="Forbes-Menu">
                <path d="M47.5008696,35.6978085 C46.3640989,35.7104801 45.2471707,36.0032995 44.2452174,36.5513264 C44.2452174,33.5755479 44.2904348,30.9919262 44.3582609,30 L38.3669565,31.1764706 L38.3669565,31.7301038 L38.9547826,31.799308 C39.7913043,31.9146482 40.1078261,32.4221453 40.2208696,33.5524798 C40.4017391,35.7439446 40.3791304,47.4394464 40.2208696,49.3079585 C41.8958474,49.7128979 43.6092461,49.9294904 45.3304348,49.9538639 C50.0782609,49.9538639 52.9495652,46.9550173 52.9495652,42.2029988 C52.9269565,38.4198385 50.5982609,35.6978085 47.5008696,35.6978085 Z M45.4208696,49.0080738 C45.0799216,49.0039869 44.7397872,48.9731384 44.4034783,48.9158016 C44.3130435,47.6009227 44.2452174,42.1799308 44.2678261,37.4509804 C44.7173661,37.2874748 45.1924386,37.2092934 45.6695652,37.2202999 C47.6365217,37.2202999 48.7443478,39.550173 48.7443478,42.4567474 C48.7217391,46.1937716 47.3652174,49.0080738 45.4208696,49.0080738 Z M15.8486957,35.8362168 L14.9217391,36.0899654 C14.0852174,33.3217993 12.7965217,31.7531719 10.3773913,31.7531719 L7.2573913,31.7531719 C7.12173913,33.5294118 7.05391304,36.4821223 7.07652174,39.550173 L9.17913043,39.4809689 C10.5808696,39.4348328 11.146087,38.3737024 11.4852174,36.828143 L12.2765217,36.828143 L12.2765217,43.3333333 L11.4852174,43.3333333 C11.146087,41.7647059 10.5582609,40.7035755 9.15652174,40.6574394 L7.07652174,40.5882353 C7.09913043,42.9181084 7.16695652,44.9019608 7.2573913,46.0784314 C7.39304348,47.8085352 7.86782609,48.5697809 9.06608696,48.7543253 L10.1286957,48.8696655 L10.1286957,49.6539792 L0,49.6539792 L0,48.8696655 L0.836521739,48.7543253 C2.03478261,48.5697809 2.50956522,47.8085352 2.64521739,46.0784314 C2.87130435,43.2179931 2.91652174,37.289504 2.64521739,33.9677047 C2.50956522,32.260669 2.03478261,31.4994233 0.836521739,31.3148789 L0,31.1995386 L0,30.438293 L15.7582609,30.438293 L15.8486957,35.8362168 Z M20.8904348,35.5363322 C25.3669565,35.5363322 27.5826087,38.627451 27.5826087,42.733564 C27.5826087,46.839677 25.0730435,49.9769319 20.5965217,49.9769319 C16.12,49.9769319 13.8817391,46.8858131 13.8817391,42.8027682 C13.8817391,38.7197232 16.3913043,35.5363322 20.8904348,35.5363322 Z M20.6643478,36.4129181 C18.6747826,36.4129181 18.1321739,39.1349481 18.1321739,42.7566321 C18.1321739,46.378316 19.013913,49.100346 20.8452174,49.100346 C22.6765217,49.100346 23.3773913,46.378316 23.3773913,42.7566321 C23.3773913,39.1349481 22.4730435,36.4359862 20.6417391,36.4359862 L20.6643478,36.4129181 Z M54.0347826,42.8950404 C54.0347826,39.11188 56.3634783,35.5594002 60.9982609,35.5594002 C64.7513043,35.5594002 66.5373913,38.3967705 66.56,42.1107266 L58.1721739,42.1107266 C58.0817391,45.4786621 59.7547826,47.9700115 62.9652174,47.9700115 C64.3669565,47.9700115 65.1356522,47.6239908 65.9947826,46.9550173 L66.3791304,47.4394464 C65.4521739,48.7543253 63.5078261,50 60.9304348,50 C56.8834783,49.9769319 54.0347826,47.0703576 54.0347826,42.8950404 Z M58.2173913,41.1649366 L62.4226087,41.0726644 C62.4452174,39.1810842 62.1513043,36.4590542 60.6365217,36.4590542 C59.1217391,36.4590542 58.24,39.0196078 58.1947826,41.1418685 L58.2173913,41.1649366 Z M77.3217391,39.8039216 L76.6434783,39.988466 C75.92,37.5663206 74.8121739,36.5513264 73.1843478,36.5513264 C72.0991304,36.5513264 71.3304348,37.3817762 71.3304348,38.5813149 C71.3304348,39.7808535 72.2121739,40.4036909 74.7443478,41.3956171 C77.2765217,42.3875433 78,43.3794694 78,45.3171857 C78,48.200692 75.8295652,49.9769319 72.2573913,49.9769319 C70.6460651,49.9702927 69.0478026,49.6815979 67.5321739,49.1234141 L67.4191304,45.1326413 L68.0973913,44.9480969 C69.0695652,47.739331 70.3582609,48.7543253 72.053913,48.7543253 C73.7495652,48.7543253 74.2921739,47.716263 74.2921739,46.6089965 C74.2921739,45.5017301 73.6817391,44.8788927 71.3982609,44.0484429 C69.1147826,43.2179931 67.7356522,42.3183391 67.7356522,39.8961938 C67.7356522,37.4740484 69.7704348,35.5363322 73.1391304,35.5363322 C74.6991304,35.5363322 76.1913043,35.8131488 77.186087,36.2745098 L77.3217391,39.8039216 Z M37.8017391,39.6885813 C35.9930435,38.4429066 34.026087,38.9965398 33.6417391,39.6655133 C33.5107803,42.1247813 33.5258804,44.5898838 33.6869565,47.0472895 C33.7773913,48.177624 34.1165217,48.6851211 34.9530435,48.8004614 L36.0382609,48.8696655 L36.0382609,49.6539792 L27.6956522,49.6539792 L27.6956522,48.8696655 L28.2834783,48.8004614 C29.12,48.6851211 29.4365217,48.177624 29.5495652,47.0472895 C29.7247541,44.3974747 29.7247541,41.7386268 29.5495652,39.088812 C29.4591304,37.9584775 29.12,37.4509804 28.2834783,37.3356401 L27.6956522,37.266436 L27.6956522,36.7128028 L33.6869565,35.5363322 L33.6191304,38.7197232 C35.0208696,35.44406 37.7791304,35.005767 39.2713043,35.928489 L37.8017391,39.6885813 Z" id="Shape"></path>
            </g>
        </g>
    </g>
</svg>