<?xml version="1.0" encoding="UTF-8"?>
<svg width="234px" height="60px" viewBox="0 0 234 60" version="1.1" xmlns="http://www.w3.org/2000/svg" xmlns:xlink="http://www.w3.org/1999/xlink">
    <!-- Generator: Sketch 42 (36781) - http://www.bohemiancoding.com/sketch -->
    <title>Forbes Logo</title>
    <desc>Created with Sketch.</desc>
    <defs></defs>
    <g id="Symbols" stroke="none" stroke-width="1" fill="none" fill-rule="evenodd">
        <g id="Footer" transform="translate(-1035.000000, -30.000000)" fill="#FFFFFF">
            <g id="Forbes-Logo">
                <g transform="translate(1035.000000, 30.000000)">
                    <path d="M142.502609,17.0344828 C139.092297,17.0723665 135.741512,17.9477955 132.735652,19.5862069 C132.735652,10.6896552 132.871304,2.96551724 133.074783,0 L115.10087,3.51724138 L115.10087,5.17241379 L116.864348,5.37931034 C119.373913,5.72413793 120.323478,7.24137931 120.662609,10.6206897 C121.205217,17.1724138 121.137391,52.137931 120.662609,57.7241379 C125.687542,58.9347671 130.827738,59.582304 135.991304,59.6551724 C150.234783,59.6551724 158.848696,50.6896552 158.848696,36.4827586 C158.78087,25.1724138 151.794783,17.0344828 142.502609,17.0344828 Z M136.262609,56.8275862 C135.239765,56.8153677 134.219362,56.7231415 133.210435,56.5517241 C132.93913,52.6206897 132.735652,36.4137931 132.803478,22.2758621 C134.152098,21.7870367 135.577316,21.5533012 137.008696,21.5862069 C142.909565,21.5862069 146.233043,28.5517241 146.233043,37.2413793 C146.165217,48.4137931 142.095652,56.8275862 136.262609,56.8275862 Z M47.546087,17.4482759 L44.7652174,18.2068966 C42.2556522,9.93103448 38.3895652,5.24137931 31.1321739,5.24137931 L21.7721739,5.24137931 C21.3652174,10.5517241 21.1617391,19.3793103 21.2295652,28.5517241 L27.5373913,28.3448276 C31.7426087,28.2068966 33.4382609,25.0344828 34.4556522,20.4137931 L36.8295652,20.4137931 L36.8295652,39.862069 L34.4556522,39.862069 C33.4382609,35.1724138 31.6747826,32 27.4695652,31.862069 L21.2295652,31.6551724 C21.2973913,38.6206897 21.5008696,44.5517241 21.7721739,48.0689655 C22.1791304,53.2413793 23.6034783,55.5172414 27.1982609,56.0689655 L30.386087,56.4137931 L30.386087,58.7586207 L0,58.7586207 L0,56.4137931 L2.50956522,56.0689655 C6.10434783,55.5172414 7.52869565,53.2413793 7.93565217,48.0689655 C8.61391304,39.5172414 8.74956522,21.7931034 7.93565217,11.862069 C7.52869565,6.75862069 6.10434783,4.48275862 2.50956522,3.93103448 L0,3.5862069 L0,1.31034483 L47.2747826,1.31034483 L47.546087,17.4482759 Z M62.6713043,16.5517241 C76.1008696,16.5517241 82.7478261,25.7931034 82.7478261,38.0689655 C82.7478261,50.3448276 75.2191304,59.7241379 61.7895652,59.7241379 C48.36,59.7241379 41.6452174,50.4827586 41.6452174,38.2758621 C41.6452174,26.0689655 49.173913,16.5517241 62.6713043,16.5517241 Z M61.9930435,19.1724138 C56.0243478,19.1724138 54.3965217,27.3103448 54.3965217,38.137931 C54.3965217,48.9655172 57.0417391,57.1034483 62.5356522,57.1034483 C68.0295652,57.1034483 70.1321739,48.9655172 70.1321739,38.137931 C70.1321739,27.3103448 67.4191304,19.2413793 61.9252174,19.2413793 L61.9930435,19.1724138 Z M162.104348,38.5517241 C162.104348,27.2413793 169.090435,16.6206897 182.994783,16.6206897 C194.253913,16.6206897 199.612174,25.1034483 199.68,36.2068966 L174.516522,36.2068966 C174.245217,46.2758621 179.264348,53.7241379 188.895652,53.7241379 C193.10087,53.7241379 195.406957,52.6896552 197.984348,50.6896552 L199.137391,52.137931 C196.356522,56.0689655 190.523478,59.7931034 182.791304,59.7931034 C170.650435,59.7241379 162.104348,51.0344828 162.104348,38.5517241 Z M174.652174,33.3793103 L187.267826,33.1034483 C187.335652,27.4482759 186.453913,19.3103448 181.909565,19.3103448 C177.365217,19.3103448 174.72,26.9655172 174.584348,33.3103448 L174.652174,33.3793103 Z M231.965217,29.3103448 L229.930435,29.862069 C227.76,22.6206897 224.436522,19.5862069 219.553043,19.5862069 C216.297391,19.5862069 213.991304,22.0689655 213.991304,25.6551724 C213.991304,29.2413793 216.636522,31.1034483 224.233043,34.0689655 C231.829565,37.0344828 234,40 234,45.7931034 C234,54.4137931 227.488696,59.7241379 216.772174,59.7241379 C211.938195,59.7042889 207.143408,58.8411911 202.596522,57.1724138 L202.257391,45.2413793 L204.292174,44.6896552 C207.208696,53.0344828 211.074783,56.0689655 216.161739,56.0689655 C221.248696,56.0689655 222.876522,52.9655172 222.876522,49.6551724 C222.876522,46.3448276 221.045217,44.4827586 214.194783,42 C207.344348,39.5172414 203.206957,36.8275862 203.206957,29.5862069 C203.206957,22.3448276 209.311304,16.5517241 219.417391,16.5517241 C224.097391,16.5517241 228.573913,17.3793103 231.558261,18.7586207 L231.965217,29.3103448 Z M113.405217,28.9655172 C107.97913,25.2413793 102.078261,26.8965517 100.925217,28.8965517 C100.532341,36.2489152 100.577641,43.6187214 101.06087,50.9655172 C101.332174,54.3448276 102.349565,55.862069 104.85913,56.2068966 L108.114783,56.4137931 L108.114783,58.7586207 L83.0869565,58.7586207 L83.0869565,56.4137931 L84.8504348,56.2068966 C87.36,55.862069 88.3095652,54.3448276 88.6486957,50.9655172 C89.1742622,43.0434847 89.1742622,35.0944463 88.6486957,27.1724138 C88.3773913,23.7931034 87.36,22.2758621 84.8504348,21.9310345 L83.0869565,21.7241379 L83.0869565,20.0689655 L101.06087,16.5517241 L100.857391,26.0689655 C105.062609,16.2758621 113.337391,14.9655172 117.813913,17.7241379 L113.405217,28.9655172 Z" id="Shape" fill-rule="nonzero"></path>
                    <path d="M181.025923,6.9515625 L180.024148,6.9515625 L177.628196,3.6796875 L176.940341,4.29375 L176.940341,6.9515625 L176.090909,6.9515625 L176.090909,0.0984375 L176.940341,0.0984375 L176.940341,3.478125 L177.522017,2.8265625 L179.927202,0.0984375 L180.919744,0.0984375 L178.246804,3.084375 L181.025923,6.9515625 Z M186.177912,6.9515625 L185.365412,4.828125 L182.687855,4.828125 L181.884588,6.9515625 L181.025923,6.9515625 L183.661932,0.0703125 L184.428267,0.0703125 L187.059659,6.9515625 L186.177912,6.9515625 Z M185.111506,4.0640625 L184.354403,1.9875 L184.03125,0.9609375 C183.93892,1.33593937 183.841975,1.67812345 183.740412,1.9875 L182.974077,4.0640625 L185.111506,4.0640625 Z M192.110085,6.9515625 L187.428977,6.9515625 L187.428977,6.3 L190.983665,0.8671875 L187.539773,0.8671875 L187.539773,0.0984375 L192.013139,0.0984375 L192.013139,0.75 L188.458452,6.1828125 L192.110085,6.1828125 L192.110085,6.9515625 Z M197.626776,6.9515625 L196.814276,4.828125 L194.136719,4.828125 L193.333452,6.9515625 L192.474787,6.9515625 L195.110795,0.0703125 L195.877131,0.0703125 L198.508523,6.9515625 L197.626776,6.9515625 Z M196.560369,4.0640625 L195.803267,1.9875 L195.480114,0.9609375 C195.387784,1.33593937 195.290839,1.67812345 195.189276,1.9875 L194.42294,4.0640625 L196.560369,4.0640625 Z M204.371449,6.9515625 L203.369673,6.9515625 L200.973722,3.6796875 L200.285866,4.29375 L200.285866,6.9515625 L199.436435,6.9515625 L199.436435,0.0984375 L200.285866,0.0984375 L200.285866,3.478125 L200.867543,2.8265625 L203.272727,0.0984375 L204.26527,0.0984375 L201.59233,3.084375 L204.371449,6.9515625 Z M210.451349,6.9515625 L209.601918,6.9515625 L209.601918,3.7546875 L206.13956,3.7546875 L206.13956,6.9515625 L205.290128,6.9515625 L205.290128,0.0984375 L206.13956,0.0984375 L206.13956,2.9953125 L209.601918,2.9953125 L209.601918,0.0984375 L210.451349,0.0984375 L210.451349,6.9515625 Z M216.125,5.11875 C216.125,5.71562798 215.912644,6.18593578 215.487926,6.5296875 C215.063208,6.87343922 214.472305,7.0453125 213.715199,7.0453125 C212.915005,7.0453125 212.296404,6.93750108 211.859375,6.721875 L211.859375,5.896875 C212.145598,6.02187563 212.458746,6.12031214 212.798828,6.1921875 C213.13891,6.26406286 213.456675,6.3 213.752131,6.3 C214.256868,6.3 214.636954,6.20156348 214.892401,6.0046875 C215.147847,5.80781152 215.275568,5.53750172 215.275568,5.19375 C215.275568,4.96562386 215.229404,4.77812573 215.137074,4.63125 C215.044744,4.48437427 214.890093,4.34687564 214.673118,4.21875 C214.456142,4.09062436 214.127606,3.94531331 213.6875,3.7828125 C213.062734,3.55156134 212.616479,3.27890782 212.348722,2.96484375 C212.080965,2.65077968 211.947088,2.24531498 211.947088,1.7484375 C211.947088,1.21405983 212.144825,0.789064078 212.540305,0.4734375 C212.935786,0.157810922 213.456673,0 214.102983,0 C214.776992,0 215.397133,0.128123719 215.963423,0.384375 L215.700284,1.125 C215.121683,0.881248781 214.583099,0.759375 214.084517,0.759375 C213.68442,0.759375 213.371272,0.846874125 213.145064,1.021875 C212.918855,1.19687588 212.805753,1.44218592 212.805753,1.7578125 C212.805753,1.98281363 212.849609,2.16953051 212.937322,2.31796875 C213.025036,2.46640699 213.166607,2.60156189 213.362038,2.7234375 C213.55747,2.84531311 213.864463,2.98437422 214.283026,3.140625 C214.784685,3.32812594 215.158616,3.51015537 215.40483,3.68671875 C215.651043,3.86328213 215.832623,4.0664051 215.949574,4.29609375 C216.066525,4.5257824 216.125,4.79999841 216.125,5.11875 Z M219.62429,6.9515625 L218.770241,6.9515625 L218.770241,0.8578125 L216.660511,0.8578125 L216.660511,0.0984375 L221.72017,0.0984375 L221.72017,0.8578125 L219.62429,0.8578125 L219.62429,6.9515625 Z M226.655185,6.9515625 L225.842685,4.828125 L223.165128,4.828125 L222.361861,6.9515625 L221.503196,6.9515625 L224.139205,0.0703125 L224.90554,0.0703125 L227.536932,6.9515625 L226.655185,6.9515625 Z M225.588778,4.0640625 L224.831676,1.9875 L224.508523,0.9609375 C224.416193,1.33593937 224.319248,1.67812345 224.217685,1.9875 L223.451349,4.0640625 L225.588778,4.0640625 Z M233.815341,6.9515625 L232.822798,6.9515625 L229.208097,1.2609375 L229.171165,1.2609375 L229.194247,1.640625 C229.231179,2.20937784 229.249645,2.70312291 229.249645,3.121875 L229.249645,6.9515625 L228.464844,6.9515625 L228.464844,0.0984375 L229.448153,0.0984375 L229.655895,0.43125 L231.871804,3.909375 L233.049006,5.7703125 L233.085937,5.7703125 C233.079782,5.69531212 233.067472,5.42734605 233.049006,4.96640625 C233.03054,4.50546645 233.021307,4.17187603 233.021307,3.965625 L233.021307,0.0984375 L233.815341,0.0984375 L233.815341,6.9515625 Z" id="KAZAKHSTAN"></path>
                </g>
            </g>
        </g>
    </g>
</svg>