<?xml version="1.0" encoding="UTF-8"?>
<svg width="157px" height="40px" viewBox="0 0 157 40" version="1.1" xmlns="http://www.w3.org/2000/svg" xmlns:xlink="http://www.w3.org/1999/xlink">
    <!-- Generator: Sketch 42 (36781) - http://www.bohemiancoding.com/sketch -->
    <title>Logo</title>
    <desc>Created with Sketch.</desc>
    <defs></defs>
    <g id="Symbols" stroke="none" stroke-width="1" fill="none" fill-rule="evenodd">
        <g id="Menu/Top" transform="translate(-642.000000, -20.000000)" fill="#193161">
            <g id="Menu/Main">
                <g id="Logo" transform="translate(642.000000, 20.000000)">
                    <path d="M95.6107246,11.3563218 C93.3226092,11.3815777 91.0744333,11.965197 89.0576812,13.0574713 C89.0576812,7.12643678 89.1486957,1.97701149 89.2852174,0 L77.2257971,2.34482759 L77.2257971,3.44827586 L78.4089855,3.5862069 C80.0927536,3.81609195 80.7298551,4.82758621 80.9573913,7.08045977 C81.3214493,11.4482759 81.275942,34.7586207 80.9573913,38.4827586 C84.3288211,39.2898447 87.777585,39.721536 91.242029,39.7701149 C100.798551,39.7701149 106.577971,33.7931034 106.577971,24.3218391 C106.532464,16.7816092 101.845217,11.3563218 95.6107246,11.3563218 Z M91.424058,37.8850575 C90.7377908,37.8769118 90.0531614,37.8154276 89.3762319,37.7011494 C89.1942029,35.0804598 89.0576812,24.2758621 89.1031884,14.8505747 C90.0080318,14.5246911 90.9642674,14.3688675 91.9246377,14.3908046 C95.8837681,14.3908046 98.1136232,19.0344828 98.1136232,24.8275862 C98.0681159,32.2758621 95.3376812,37.8850575 91.424058,37.8850575 Z M31.9005797,11.6321839 L30.0347826,12.137931 C28.3510145,6.62068966 25.7571014,3.49425287 20.8878261,3.49425287 L14.6078261,3.49425287 C14.3347826,7.03448276 14.1982609,12.9195402 14.2437681,19.0344828 L18.475942,18.8965517 C21.2973913,18.8045977 22.4350725,16.6896552 23.1176812,13.6091954 L24.7104348,13.6091954 L24.7104348,26.5747126 L23.1176812,26.5747126 C22.4350725,23.4482759 21.2518841,21.3333333 18.4304348,21.2413793 L14.2437681,21.1034483 C14.2892754,25.7471264 14.4257971,29.7011494 14.6078261,32.045977 C14.8808696,35.4942529 15.8365217,37.0114943 18.2484058,37.3793103 L20.3872464,37.6091954 L20.3872464,39.1724138 L0,39.1724138 L0,37.6091954 L1.68376812,37.3793103 C4.09565217,37.0114943 5.05130435,35.4942529 5.32434783,32.045977 C5.77942029,26.3448276 5.87043478,14.5287356 5.32434783,7.90804598 C5.05130435,4.50574713 4.09565217,2.98850575 1.68376812,2.62068966 L0,2.3908046 L0,0.873563218 L31.7185507,0.873563218 L31.9005797,11.6321839 Z M42.0486957,11.0344828 C51.0591304,11.0344828 55.5188406,17.1954023 55.5188406,25.3793103 C55.5188406,33.5632184 50.4675362,39.816092 41.4571014,39.816092 C32.4466667,39.816092 27.9414493,33.6551724 27.9414493,25.5172414 C27.9414493,17.3793103 32.9927536,11.0344828 42.0486957,11.0344828 Z M41.5936232,12.7816092 C37.5889855,12.7816092 36.4968116,18.2068966 36.4968116,25.4252874 C36.4968116,32.6436782 38.2715942,38.0689655 41.9576812,38.0689655 C45.6437681,38.0689655 47.0544928,32.6436782 47.0544928,25.4252874 C47.0544928,18.2068966 45.2342029,12.8275862 41.5481159,12.8275862 L41.5936232,12.7816092 Z M108.762319,25.7011494 C108.762319,18.1609195 113.449565,11.0804598 122.778551,11.0804598 C130.332754,11.0804598 133.927826,16.7356322 133.973333,24.137931 L117.090145,24.137931 C116.908116,30.8505747 120.275652,35.816092 126.737681,35.816092 C129.55913,35.816092 131.106377,35.1264368 132.835652,33.7931034 L133.609275,34.7586207 C131.743478,37.3793103 127.829855,39.862069 122.642029,39.862069 C114.496232,39.816092 108.762319,34.0229885 108.762319,25.7011494 Z M117.181159,22.2528736 L125.645507,22.0689655 C125.691014,18.2988506 125.09942,12.8735632 122.050435,12.8735632 C119.001449,12.8735632 117.226667,17.9770115 117.135652,22.2068966 L117.181159,22.2528736 Z M155.634783,19.5402299 L154.269565,19.908046 C152.813333,15.0804598 150.583478,13.0574713 147.306957,13.0574713 C145.122609,13.0574713 143.575362,14.7126437 143.575362,17.1034483 C143.575362,19.4942529 145.350145,20.7356322 150.446957,22.7126437 C155.543768,24.6896552 157,26.6666667 157,30.5287356 C157,36.2758621 152.631304,39.816092 145.441159,39.816092 C142.197849,39.8028593 138.980834,39.2274607 135.930145,38.1149425 L135.702609,30.1609195 L137.067826,29.7931034 C139.024638,35.3563218 141.618551,37.3793103 145.031594,37.3793103 C148.444638,37.3793103 149.536812,35.3103448 149.536812,33.1034483 C149.536812,30.8965517 148.308116,29.6551724 143.711884,28 C139.115652,26.3448276 136.33971,24.5517241 136.33971,19.7241379 C136.33971,14.8965517 140.435362,11.0344828 147.215942,11.0344828 C150.355942,11.0344828 153.35942,11.5862069 155.361739,12.5057471 L155.634783,19.5402299 Z M76.0881159,19.3103448 C72.4475362,16.8275862 68.4884058,17.9310345 67.7147826,19.2643678 C67.451186,24.1659435 67.4815797,29.0791476 67.8057971,33.9770115 C67.9878261,36.2298851 68.6704348,37.2413793 70.3542029,37.4712644 L72.5385507,37.6091954 L72.5385507,39.1724138 L55.7463768,39.1724138 L55.7463768,37.6091954 L56.9295652,37.4712644 C58.6133333,37.2413793 59.2504348,36.2298851 59.477971,33.9770115 C59.8305948,28.6956565 59.8305948,23.3962976 59.477971,18.1149425 C59.295942,15.862069 58.6133333,14.8505747 56.9295652,14.6206897 L55.7463768,14.4827586 L55.7463768,13.3793103 L67.8057971,11.0344828 L67.6692754,17.3793103 C70.4907246,10.8505747 76.0426087,9.97701149 79.046087,11.816092 L76.0881159,19.3103448 Z" id="Shape" fill-rule="nonzero"></path>
                    <path d="M121.457564,4.634375 L120.785432,4.634375 L119.177892,2.453125 L118.716383,2.8625 L118.716383,4.634375 L118.146465,4.634375 L118.146465,0.065625 L118.716383,0.065625 L118.716383,2.31875 L119.106652,1.884375 L120.720387,0.065625 L121.386324,0.065625 L119.592941,2.05625 L121.457564,4.634375 Z M124.91424,4.634375 L124.369101,3.21875 L122.572621,3.21875 L122.033677,4.634375 L121.457564,4.634375 L123.226168,0.046875 L123.740333,0.046875 L125.50584,4.634375 L124.91424,4.634375 Z M124.198745,2.709375 L123.690775,1.325 L123.473958,0.640625 C123.41201,0.89062625 123.346966,1.11874897 123.278823,1.325 L122.764658,2.709375 L124.198745,2.709375 Z M128.894373,4.634375 L125.75363,4.634375 L125.75363,4.2 L128.138613,0.578125 L125.827967,0.578125 L125.827967,0.065625 L128.829328,0.065625 L128.829328,0.5 L126.444346,4.121875 L128.894373,4.121875 L128.894373,4.634375 Z M132.595743,4.634375 L132.050604,3.21875 L130.254123,3.21875 L129.715179,4.634375 L129.139066,4.634375 L130.90767,0.046875 L131.421836,0.046875 L133.187342,4.634375 L132.595743,4.634375 Z M131.880248,2.709375 L131.372277,1.325 L131.155461,0.640625 C131.093513,0.89062625 131.028469,1.11874897 130.960326,1.325 L130.446161,2.709375 L131.880248,2.709375 Z M137.121015,4.634375 L136.448883,4.634375 L134.841343,2.453125 L134.379833,2.8625 L134.379833,4.634375 L133.809916,4.634375 L133.809916,0.065625 L134.379833,0.065625 L134.379833,2.31875 L134.770103,1.884375 L136.383838,0.065625 L137.049775,0.065625 L135.256392,2.05625 L137.121015,4.634375 Z M141.200264,4.634375 L140.630346,4.634375 L140.630346,2.503125 L138.307311,2.503125 L138.307311,4.634375 L137.737393,4.634375 L137.737393,0.065625 L138.307311,0.065625 L138.307311,1.996875 L140.630346,1.996875 L140.630346,0.065625 L141.200264,0.065625 L141.200264,4.634375 Z M145.006944,3.4125 C145.006944,3.81041866 144.864466,4.12395719 144.579506,4.353125 C144.294546,4.58229281 143.898085,4.696875 143.390112,4.696875 C142.85323,4.696875 142.438185,4.62500072 142.144965,4.48125 L142.144965,3.93125 C142.337004,4.01458375 142.547107,4.08020809 142.775282,4.128125 C143.003457,4.17604191 143.216658,4.2 143.414891,4.2 C143.75354,4.2 144.008555,4.13437566 144.179944,4.003125 C144.351333,3.87187434 144.437027,3.69166781 144.437027,3.4625 C144.437027,3.31041591 144.406053,3.18541716 144.344105,3.0875 C144.282157,2.98958284 144.178396,2.89791709 144.032818,2.8125 C143.887241,2.72708291 143.666813,2.63020887 143.371528,2.521875 C142.952347,2.36770756 142.652937,2.18593855 142.473288,1.9765625 C142.293639,1.76718645 142.203815,1.49687666 142.203815,1.165625 C142.203815,0.809373219 142.336485,0.526042719 142.601829,0.315625 C142.867172,0.105207281 143.216657,0 143.650292,0 C144.102512,0 144.518589,0.0854158125 144.898536,0.25625 L144.721985,0.75 C144.333779,0.587499187 143.972421,0.50625 143.637902,0.50625 C143.369462,0.50625 143.159358,0.56458275 143.007586,0.68125 C142.855813,0.79791725 142.779928,0.961457281 142.779928,1.171875 C142.779928,1.32187575 142.809353,1.44635367 142.868204,1.5453125 C142.927054,1.64427133 143.022039,1.73437459 143.153162,1.815625 C143.284286,1.89687541 143.490259,1.98958281 143.77109,2.09375 C144.107673,2.21875063 144.358559,2.34010358 144.523753,2.4578125 C144.688948,2.57552142 144.810777,2.71093673 144.889244,2.8640625 C144.967711,3.01718827 145.006944,3.19999894 145.006944,3.4125 Z M147.354759,4.634375 L146.781743,4.634375 L146.781743,0.571875 L145.366241,0.571875 L145.366241,0.065625 L148.760969,0.065625 L148.760969,0.571875 L147.354759,0.571875 L147.354759,4.634375 Z M152.072068,4.634375 L151.526929,3.21875 L149.730449,3.21875 L149.191505,4.634375 L148.615392,4.634375 L150.383996,0.046875 L150.898161,0.046875 L152.663668,4.634375 L152.072068,4.634375 Z M151.356574,2.709375 L150.848603,1.325 L150.631787,0.640625 C150.569839,0.89062625 150.504794,1.11874897 150.436652,1.325 L149.922487,2.709375 L151.356574,2.709375 Z M156.876105,4.634375 L156.210168,4.634375 L153.78492,0.840625 L153.76014,0.840625 L153.775627,1.09375 C153.800407,1.47291856 153.812796,1.80208194 153.812796,2.08125 L153.812796,4.634375 L153.286241,4.634375 L153.286241,0.065625 L153.945983,0.065625 L154.085365,0.2875 L155.572108,2.60625 L156.36194,3.846875 L156.386719,3.846875 C156.382589,3.79687475 156.374329,3.6182307 156.36194,3.3109375 C156.34955,3.0036443 156.343355,2.78125069 156.343355,2.64375 L156.343355,0.065625 L156.876105,0.065625 L156.876105,4.634375 Z" id="KAZAKHSTAN"></path>
                </g>
            </g>
        </g>
    </g>
</svg>